HIERARCHY
ROOT hip
{
	OFFSET 0.000000 0.000000 0.000000 
	CHANNELS 6 Xposition Yposition Zposition Xrotation Zrotation Yrotation
	JOINT abdomen
	{
		OFFSET 0.000000 3.402643 0.000000 
		CHANNELS 3 Xrotation Zrotation Yrotation
		JOINT chest
		{
			OFFSET 0.000000 8.438565 -0.680529 
			CHANNELS 3 Xrotation Zrotation Yrotation
			JOINT neck
			{
				OFFSET 0.000000 10.207942 -0.272212 
				CHANNELS 3 Xrotation Zrotation Yrotation
				JOINT head
				{
					OFFSET 0.000000 3.130431 0.000000 
					CHANNELS 3 Xrotation Zrotation Yrotation
					End Site
					{
						OFFSET 0.000000 3.130435 0.000000 
					}
				}
			}
			JOINT lCollar
			{
				OFFSET 3.470700 6.669187 -0.816635 
				CHANNELS 3 Yrotation Zrotation Xrotation
				JOINT lShldr
				{
					OFFSET 3.198488 0.000000 0.000000 
					CHANNELS 3 Zrotation Yrotation Xrotation
					JOINT lForeArm
					{
						OFFSET 10.139888 0.000000 0.000000 
						CHANNELS 3 Yrotation Zrotation Xrotation
						JOINT lHand
						{
							OFFSET 8.370511 0.000000 0.000000 
							CHANNELS 3 Zrotation Yrotation Xrotation
							End Site
							{
								OFFSET 4.083176 0.000000 0.000000 
							}
						}
					}
				}
			}
			JOINT rCollar
			{
				OFFSET -3.470700 6.669187 -0.816635 
				CHANNELS 3 Yrotation Zrotation Xrotation
				JOINT rShldr
				{
					OFFSET -3.198488 0.000000 0.000000 
					CHANNELS 3 Zrotation Yrotation Xrotation
					JOINT rForeArm
					{
						OFFSET -10.139888 0.000000 0.000000 
						CHANNELS 3 Yrotation Zrotation Xrotation
						JOINT rHand
						{
							OFFSET -8.370511 0.000000 0.000000 
							CHANNELS 3 Zrotation Yrotation Xrotation
							End Site
							{
								OFFSET -4.083176 0.000000 0.000000 
							}
						}
					}
				}
			}
		}
	}
	JOINT lThigh
	{
		OFFSET 5.308129 -1.633274 1.361059 
		CHANNELS 3 Xrotation Zrotation Yrotation
		JOINT lShin
		{
			OFFSET -2.041588 -20.007561 0.000000 
			CHANNELS 3 Xrotation Zrotation Yrotation
			JOINT lFoot
			{
				OFFSET 0.000000 -19.190928 -1.224953 
				CHANNELS 3 Xrotation Yrotation Zrotation
				End Site
				{
					OFFSET 0.000000 -2.449906 4.627600 
				}
			}
		}
	}
	JOINT rThigh
	{
		OFFSET -5.308129 -1.633274 1.361059 
		CHANNELS 3 Xrotation Zrotation Yrotation
		JOINT rShin
		{
			OFFSET 2.041588 -20.007561 0.000000 
			CHANNELS 3 Xrotation Zrotation Yrotation
			JOINT rFoot
			{
				OFFSET 0.000000 -19.190928 -1.224953 
				CHANNELS 3 Xrotation Yrotation Zrotation
				End Site
				{
					OFFSET 0.000000 -2.449906 4.627600 
				}
			}
		}
	}
}
MOTION
Frames: 13
Frame Time: 0.031000
26.128437 93.514885 -38.794434 -16.026268 -0.591325 95.111244 31.085468 5.051897 4.485814 -20.839844 0.000000 0.000000 -48.042431 1.481200 -8.627491 8.603516 0.000000 0.000000 -4.754609 -0.109183 -0.002653 17.959623 -0.242506 -25.290325 0.644410 -1.433980 -27.427177 -24.470844 -11.399285 -58.719151 4.754609 0.109183 -0.002672 10.905754 -8.169275 -23.938725 1.690257 -0.039264 -27.195444 8.806918 3.924543 -44.438122 -58.443256 44.995628 10.524470 135.797104 -5.124333 -25.362877 0.230967 -19.919600 -7.698852 -51.414856 -30.310282 -31.093729 -3.720197 4.833642 -25.254025 41.280842 18.908621 -15.882614 
26.165928 93.464912 -38.810776 -16.055285 -0.488006 95.159966 31.216047 4.964344 4.707968 -20.839844 0.000000 0.000000 -49.100567 0.889340 -8.782517 8.603516 0.000000 0.000000 -4.754609 -0.109183 -0.002653 18.194277 -0.447883 -25.309467 0.680364 -1.527745 -27.391279 -24.533249 -11.422517 -58.924873 4.754609 0.109183 -0.002672 10.765969 -7.998541 -24.011375 1.697048 -0.037663 -27.078020 8.689502 4.222974 -44.184059 -58.196537 44.787777 10.542261 135.818146 -5.077640 -25.386353 -0.108830 -19.976181 -8.247165 -51.315060 -30.169308 -31.195276 -3.720447 4.833754 -25.244278 41.426670 19.163260 -15.687941 
26.211397 93.430931 -38.827709 -16.006479 -0.497513 95.367325 31.148695 4.825898 4.750629 -20.839844 0.000000 0.000000 -50.210838 0.285895 -8.966630 8.603516 0.000000 0.000000 -4.754609 -0.109183 -0.002653 18.363811 -0.677669 -25.335245 0.656916 -1.509295 -27.323668 -24.755032 -11.497524 -59.056499 4.754609 0.109183 -0.002672 10.697997 -7.909067 -24.032885 1.702462 -0.048555 -26.873062 8.720328 4.378969 -43.881306 -58.130608 44.575531 10.498103 135.801926 -5.027865 -25.313168 -0.542802 -19.932875 -9.024138 -51.285686 -30.296032 -31.159063 -3.674979 4.889692 -25.252956 41.349438 19.115582 -15.259042 
26.252382 93.408943 -38.845707 -16.055431 -0.544315 95.683983 31.012983 4.865103 4.790209 -20.839844 0.000000 0.000000 -51.257870 -0.221878 -9.222693 8.603516 0.000000 0.000000 -4.754609 -0.109183 -0.002653 18.374968 -0.755041 -25.367241 0.579359 -1.410863 -27.545435 -25.168570 -11.628013 -59.268181 4.754609 0.109183 -0.002672 10.566163 -7.829128 -24.068398 1.711173 -0.052970 -26.873053 8.857024 4.195254 -43.877884 -58.357647 44.392616 10.321473 135.772888 -4.946822 -25.162266 -0.893360 -19.758038 -9.953127 -51.218426 -30.405645 -31.245264 -3.705540 4.841450 -25.419273 41.159370 19.125441 -15.010292 
26.289827 93.374962 -38.852154 -16.123875 -0.572272 95.907608 30.908327 4.942610 4.890583 -20.839844 0.000000 0.000000 -51.821552 -0.595223 -9.485824 8.603516 0.000000 0.000000 -4.754609 -0.109183 -0.002653 18.466097 -0.794962 -25.489328 0.653266 -1.478799 -27.649366 -25.364126 -11.650544 -59.233921 4.754609 0.109183 -0.002672 10.523502 -7.567344 -24.157209 1.711483 -0.052358 -26.892572 8.950337 4.314202 -43.797695 -58.557159 44.308704 10.180229 135.817001 -4.889854 -25.038452 -1.161298 -19.636776 -10.583099 -51.161430 -30.350252 -31.408537 -3.779862 4.723967 -25.586554 41.185551 19.248365 -14.838258 
26.318331 93.341484 -38.847301 -16.182339 -0.525209 96.011780 30.878176 4.945216 4.965777 -20.839844 0.000000 0.000000 -51.843914 -0.768193 -9.680347 8.603516 0.000000 0.000000 -4.754609 -0.109183 -0.002653 18.611876 -0.810596 -25.596193 0.731830 -1.634058 -27.403639 -25.144798 -11.476255 -58.828735 4.754609 0.109183 -0.002672 10.736955 -7.142550 -24.156456 1.723861 -0.061437 -26.570190 8.669577 4.769089 -43.331188 -58.566891 44.298912 10.152822 135.848877 -4.842799 -25.038574 -1.441973 -19.650387 -10.824741 -51.071590 -30.248549 -31.424959 -3.819851 4.664921 -25.733591 41.272991 19.234070 -14.355669 
26.342318 93.323509 -38.838455 -16.240793 -0.468797 96.191238 30.835924 4.901557 5.001779 -20.839844 0.000000 0.000000 -51.870361 -0.838405 -9.764037 8.603516 0.000000 0.000000 -4.754609 -0.109183 -0.002653 18.629585 -0.695710 -25.638668 0.533453 -1.595253 -27.139996 -24.882875 -11.224363 -58.325794 4.754609 0.109183 -0.002672 11.084138 -6.779341 -24.100878 1.735355 -0.072459 -26.179483 8.350785 4.795400 -42.900219 -58.735268 44.194042 10.016902 135.895706 -4.762846 -25.020330 -1.602872 -19.709099 -10.779595 -50.973660 -30.287302 -31.330259 -3.802598 4.694984 -25.743092 41.062870 19.149435 -13.769259 
26.370790 93.304512 -38.825565 -16.240816 -0.478173 96.467415 30.763540 4.836370 4.987697 -20.839844 0.000000 0.000000 -51.892467 -0.992189 -9.591472 8.603516 0.000000 0.000000 -4.754609 -0.109183 -0.002653 18.537323 -0.706567 -25.548433 0.591857 -1.335965 -26.972996 -24.743322 -11.084249 -58.251125 4.754609 0.109183 -0.002672 11.411013 -6.568855 -24.026112 1.733136 -0.067226 -26.032784 8.158696 4.413181 -42.813019 -58.997837 43.948795 9.838299 135.897964 -4.715963 -25.014931 -1.702571 -19.759001 -10.892911 -50.953289 -30.519781 -31.209295 -3.705106 4.831540 -25.682264 40.564960 19.057325 -13.278873 
26.411776 93.264534 -38.812374 -16.182114 -0.431422 96.648628 30.744328 4.852279 5.028131 -20.839844 0.000000 0.000000 -51.579529 -1.183462 -9.149651 8.603516 0.000000 0.000000 -4.754609 -0.109183 -0.002653 18.312189 -0.960518 -25.244268 0.798927 -1.082324 -26.799124 -24.719021 -11.083827 -58.761127 4.754609 0.109183 -0.002672 11.664528 -6.350612 -23.907101 1.739275 -0.067165 -25.856794 7.911802 4.226903 -42.799801 -59.016815 43.792065 9.811344 135.941467 -4.675732 -25.001524 -1.850145 -19.787174 -10.976687 -50.914059 -30.665899 -31.148975 -3.638144 4.920013 -25.670523 40.271275 18.946291 -13.233807 
26.471239 93.210060 -38.801331 -16.152601 -0.318924 96.781822 30.803074 5.037494 5.134162 -20.839844 0.000000 0.000000 -51.100399 -1.166554 -8.754849 8.603516 0.000000 0.000000 -4.754609 -0.109183 -0.002653 18.034615 -1.204188 -24.973442 0.768433 -1.036487 -26.684355 -24.847269 -11.245896 -59.180557 4.754609 0.109183 -0.002672 11.581355 -6.100622 -23.848104 1.730634 -0.062603 -25.866566 8.050411 4.455688 -43.022240 -58.981709 43.512856 9.717167 136.018997 -4.578189 -24.873617 -2.121922 -19.686537 -11.024724 -50.800148 -30.692125 -31.144690 -3.635204 4.929349 -25.504993 40.446796 18.768099 -14.030102 
26.521212 93.169075 -38.776646 -16.152506 -0.253264 96.977646 30.855116 5.249309 5.143281 -20.839844 0.000000 0.000000 -50.675903 -0.787009 -8.621685 8.603516 0.000000 0.000000 -4.754609 -0.109183 -0.002653 17.926117 -1.290871 -24.947079 0.789255 -1.077617 -26.593489 -24.870667 -11.548118 -59.020866 4.754609 0.109183 -0.002672 11.213572 -5.844744 -23.933622 1.718276 -0.053167 -26.208481 8.452688 4.766413 -43.547062 -59.146626 43.150448 9.531945 136.064133 -4.452284 -24.682247 -2.367747 -19.547634 -11.081369 -50.689941 -30.803593 -31.010599 -3.613210 5.009731 -25.262091 40.503693 18.538218 -14.830766 
26.534700 93.158592 -38.738316 -16.181805 -0.253226 97.114502 30.869246 5.316309 5.129488 -20.839844 0.000000 0.000000 -50.206776 -0.310292 -8.467291 8.603516 0.000000 0.000000 -4.754609 -0.109183 -0.002653 18.006289 -1.053316 -24.998032 0.668290 -1.170108 -26.555021 -24.629282 -11.774992 -58.686878 4.754609 0.109183 -0.002672 10.949854 -5.578144 -24.085941 1.711175 -0.045489 -26.315840 8.710425 5.067720 -43.522835 -59.351482 43.042942 9.401204 136.071091 -4.411285 -24.566599 -2.396142 -19.497896 -10.931391 -50.661224 -30.902611 -30.685297 -3.538071 5.123573 -25.016848 40.203926 18.211338 -14.778684 
26.549700 93.152092 -38.711330 -16.181780 -0.234468 97.118820 30.816027 5.275802 5.265421 -20.839844 0.000000 0.000000 -49.523361 -0.205146 -8.033158 8.603516 0.000000 0.000000 -4.754609 -0.109183 -0.002653 18.141930 -0.841362 -25.095261 0.630532 -1.373282 -26.627872 -24.272415 -11.801158 -58.538937 4.754609 0.109183 -0.002672 10.937569 -5.326286 -24.230268 1.738692 -0.068369 -25.817753 8.595121 5.396560 -42.526634 -59.381065 43.062630 9.397216 136.060455 -4.411623 -24.589657 -2.300813 -19.530985 -10.443997 -50.624107 -30.828400 -30.445551 -3.581016 5.115667 -24.922386 40.159752 18.064152 -14.048347 
